<svg width="334" height="35" viewBox="0 0 334 35" fill="none" xmlns="http://www.w3.org/2000/svg">
<path d="M7.24435 10.8V12.0295H1.20609V10.8H7.24435ZM1.51152 0.626539V12.0295H0V0.626539H1.51152ZM6.44552 5.5292V6.75879H1.20609V5.5292H6.44552ZM7.16604 0.626539V1.86395H1.20609V0.626539H7.16604ZM10.3457 5.36474V12.0295H8.89685V3.55561H10.2674L10.3457 5.36474ZM10.0011 7.47148L9.39808 7.44798C9.4033 6.86843 9.48945 6.33326 9.65653 5.84247C9.82361 5.34646 10.0586 4.91572 10.3614 4.55024C10.6642 4.18476 11.0245 3.90281 11.4422 3.70441C11.8651 3.50079 12.3324 3.39897 12.844 3.39897C13.2617 3.39897 13.6377 3.45641 13.9718 3.57127C14.306 3.68092 14.5905 3.85843 14.8255 4.10383C15.0656 4.34922 15.2484 4.66771 15.3737 5.0593C15.499 5.44567 15.5617 5.91818 15.5617 6.47684V12.0295H14.105V6.46118C14.105 6.01738 14.0397 5.66234 13.9092 5.39607C13.7786 5.12457 13.5881 4.92877 13.3374 4.80869C13.0868 4.68338 12.7788 4.62072 12.4133 4.62072C12.053 4.62072 11.7241 4.69643 11.4265 4.84784C11.1341 4.99926 10.8809 5.2081 10.6668 5.47438C10.458 5.74066 10.2935 6.0461 10.1734 6.3907C10.0586 6.73007 10.0011 7.09033 10.0011 7.47148ZM21.3102 3.55561V4.66771H16.7286V3.55561H21.3102ZM18.2793 1.49586H19.7281V9.93064C19.7281 10.2178 19.7725 10.4345 19.8613 10.5807C19.95 10.7269 20.0649 10.8235 20.2059 10.8704C20.3468 10.9174 20.4983 10.9409 20.6601 10.9409C20.7802 10.9409 20.9055 10.9305 21.036 10.9096C21.1718 10.8835 21.2736 10.8626 21.3415 10.847L21.3493 12.0295C21.2344 12.0661 21.083 12.1 20.8951 12.1314C20.7123 12.1679 20.4904 12.1862 20.2294 12.1862C19.8743 12.1862 19.548 12.1157 19.2504 11.9747C18.9528 11.8338 18.7152 11.5988 18.5377 11.2699C18.3654 10.9357 18.2793 10.4867 18.2793 9.92281V1.49586ZM26.5261 12.1862C25.9361 12.1862 25.4009 12.087 24.9206 11.8886C24.4455 11.6849 24.0356 11.4004 23.691 11.0349C23.3516 10.6694 23.0906 10.2361 22.9078 9.73485C22.7251 9.23362 22.6337 8.68539 22.6337 8.09018V7.76125C22.6337 7.07206 22.7355 6.45857 22.9392 5.92079C23.1428 5.37779 23.4195 4.91833 23.7693 4.54241C24.1191 4.16648 24.5159 3.88193 24.9597 3.68875C25.4035 3.49556 25.863 3.39897 26.3381 3.39897C26.9438 3.39897 27.4659 3.5034 27.9045 3.71224C28.3483 3.92109 28.7111 4.21347 28.9931 4.5894C29.275 4.9601 29.4839 5.39868 29.6196 5.90513C29.7554 6.40636 29.8232 6.95458 29.8232 7.54979V8.19983H23.4952V7.01723H28.3744V6.90759C28.3535 6.53167 28.2752 6.16619 28.1394 5.81115C28.0089 5.45611 27.8 5.16372 27.5129 4.93399C27.2257 4.70426 26.8341 4.5894 26.3381 4.5894C26.0092 4.5894 25.7064 4.65988 25.4296 4.80085C25.1529 4.9366 24.9154 5.14023 24.717 5.41173C24.5186 5.68323 24.3645 6.01477 24.2549 6.40636C24.1452 6.79795 24.0904 7.24958 24.0904 7.76125V8.09018C24.0904 8.49221 24.1452 8.87075 24.2549 9.22578C24.3697 9.5756 24.5342 9.88365 24.7483 10.1499C24.9676 10.4162 25.2312 10.6251 25.5393 10.7765C25.8526 10.9279 26.2076 11.0036 26.6044 11.0036C27.1161 11.0036 27.5494 10.8992 27.9045 10.6903C28.2595 10.4815 28.5702 10.2021 28.8364 9.85232L29.7136 10.5493C29.5309 10.8261 29.2985 11.0897 29.0166 11.3404C28.7346 11.591 28.3874 11.7946 27.975 11.9512C27.5677 12.1079 27.0848 12.1862 26.5261 12.1862ZM32.9638 4.887V12.0295H31.5149V3.55561H32.9246L32.9638 4.887ZM35.6109 3.50862L35.6031 4.85568C35.483 4.82957 35.3681 4.81391 35.2585 4.80869C35.154 4.79824 35.034 4.79302 34.8982 4.79302C34.5641 4.79302 34.2691 4.84523 34.0132 4.94966C33.7574 5.05408 33.5407 5.20027 33.3632 5.38823C33.1857 5.5762 33.0447 5.80071 32.9403 6.06176C32.8411 6.3176 32.7758 6.59954 32.7445 6.90759L32.3372 7.14254C32.3372 6.63087 32.3868 6.15052 32.486 5.7015C32.5905 5.25248 32.7497 4.85568 32.9638 4.51108C33.1778 4.16126 33.4493 3.88976 33.7783 3.69658C34.1124 3.49817 34.5092 3.39897 34.9687 3.39897C35.0731 3.39897 35.1932 3.41203 35.329 3.43813C35.4647 3.45902 35.5587 3.48251 35.6109 3.50862ZM44.2336 12.0295H41.8528L41.8685 10.8H44.2336C45.0481 10.8 45.7269 10.6303 46.2699 10.2909C46.8129 9.9463 47.2201 9.46596 47.4916 8.84986C47.7684 8.22854 47.9067 7.5028 47.9067 6.67264V5.97561C47.9067 5.32297 47.8284 4.74342 47.6718 4.23697C47.5151 3.7253 47.2854 3.29455 46.9826 2.94473C46.6798 2.58969 46.309 2.3208 45.8705 2.13806C45.4371 1.95532 44.9385 1.86395 44.3746 1.86395H41.8058V0.626539H44.3746C45.1212 0.626539 45.8026 0.751847 46.4187 1.00246C47.0348 1.24786 47.5647 1.60551 48.0085 2.07541C48.4576 2.54009 48.8022 3.10398 49.0423 3.76706C49.2825 4.42493 49.4026 5.16633 49.4026 5.99128V6.67264C49.4026 7.49758 49.2825 8.2416 49.0423 8.90468C48.8022 9.56255 48.4549 10.1238 48.0007 10.5885C47.5517 11.0532 47.0087 11.4108 46.3717 11.6615C45.7399 11.9068 45.0273 12.0295 44.2336 12.0295ZM42.6595 0.626539V12.0295H41.1479V0.626539H42.6595ZM53.295 0.626539V12.0295H51.7834V0.626539H53.295ZM64.4708 6.35154V10.5259C64.3299 10.7347 64.1054 10.9697 63.7973 11.2307C63.4893 11.4865 63.0637 11.7111 62.5207 11.9042C61.983 12.0922 61.2885 12.1862 60.4375 12.1862C59.7431 12.1862 59.1035 12.0661 58.5187 11.8259C57.9392 11.5805 57.4353 11.2255 57.0072 10.7608C56.5843 10.2909 56.2554 9.72179 56.0204 9.05349C55.7907 8.37996 55.6758 7.61767 55.6758 6.76662V5.88163C55.6758 5.03058 55.775 4.27091 55.9734 3.6026C56.177 2.93429 56.4746 2.36779 56.8662 1.90311C57.2578 1.43321 57.7382 1.07817 58.3073 0.837996C58.8764 0.592601 59.529 0.469904 60.2652 0.469904C61.1371 0.469904 61.8655 0.621318 62.4503 0.924145C63.0402 1.22175 63.4997 1.63422 63.8286 2.16156C64.1628 2.6889 64.3769 3.28933 64.4708 3.96286H62.9593C62.8914 3.55039 62.7557 3.17446 62.5521 2.83509C62.3537 2.49571 62.0691 2.22421 61.6984 2.02059C61.3277 1.81174 60.85 1.70732 60.2652 1.70732C59.7379 1.70732 59.281 1.80391 58.8946 1.99709C58.5083 2.19028 58.1898 2.467 57.9392 2.82726C57.6886 3.18752 57.5006 3.62348 57.3753 4.13516C57.2552 4.64683 57.1952 5.22377 57.1952 5.86597V6.76662C57.1952 7.42448 57.2709 8.01186 57.4223 8.52876C57.5789 9.04565 57.8008 9.48684 58.088 9.85232C58.3751 10.2126 58.7171 10.4867 59.1139 10.6747C59.516 10.8626 59.9598 10.9566 60.4453 10.9566C60.9831 10.9566 61.4191 10.9122 61.7532 10.8235C62.0874 10.7295 62.3484 10.6198 62.5364 10.4945C62.7244 10.364 62.8679 10.2413 62.9671 10.1264V7.57329H60.3279V6.35154H64.4708ZM68.5982 0.626539V12.0295H67.0866V0.626539H68.5982ZM78.4975 10.9958C78.8421 10.9958 79.1606 10.9253 79.453 10.7843C79.7453 10.6433 79.9855 10.4501 80.1735 10.2048C80.3614 9.95414 80.4685 9.66958 80.4946 9.35109H81.873C81.8469 9.85232 81.6772 10.3196 81.3639 10.753C81.0558 11.1811 80.6512 11.5283 80.15 11.7946C79.6487 12.0557 79.0979 12.1862 78.4975 12.1862C77.8605 12.1862 77.3044 12.0739 76.8293 11.8494C76.3594 11.6249 75.9678 11.3169 75.6546 10.9253C75.3465 10.5337 75.1142 10.0847 74.9575 9.57821C74.8061 9.06654 74.7304 8.52615 74.7304 7.95704V7.62811C74.7304 7.059 74.8061 6.52122 74.9575 6.01477C75.1142 5.5031 75.3465 5.05147 75.6546 4.65988C75.9678 4.2683 76.3594 3.96025 76.8293 3.73574C77.3044 3.51123 77.8605 3.39897 78.4975 3.39897C79.1606 3.39897 79.7401 3.53472 80.2361 3.80622C80.7321 4.0725 81.1211 4.43798 81.4031 4.90267C81.6902 5.36213 81.8469 5.88424 81.873 6.46901H80.4946C80.4685 6.1192 80.3693 5.80332 80.197 5.52137C80.0299 5.23943 79.8002 5.01492 79.5078 4.84784C79.2206 4.67555 78.8838 4.5894 78.4975 4.5894C78.0537 4.5894 77.6804 4.67816 77.3775 4.85568C77.0799 5.02797 76.8424 5.26293 76.6649 5.56053C76.4926 5.85292 76.3672 6.17924 76.2889 6.5395C76.2158 6.89454 76.1793 7.25741 76.1793 7.62811V7.95704C76.1793 8.32774 76.2158 8.69323 76.2889 9.05349C76.362 9.41375 76.4847 9.74007 76.657 10.0325C76.8345 10.3248 77.0721 10.5598 77.3697 10.7373C77.6725 10.9096 78.0485 10.9958 78.4975 10.9958ZM84.9508 0V12.0295H83.502V0H84.9508ZM84.6062 7.47148L84.0032 7.44798C84.0084 6.86843 84.0946 6.33326 84.2616 5.84247C84.4287 5.34646 84.6637 4.91572 84.9665 4.55024C85.2693 4.18476 85.6296 3.90281 86.0473 3.70441C86.4702 3.50079 86.9375 3.39897 87.4492 3.39897C87.8668 3.39897 88.2428 3.45641 88.5769 3.57127C88.9111 3.68092 89.1956 3.85843 89.4306 4.10383C89.6708 4.34922 89.8535 4.66771 89.9788 5.0593C90.1041 5.44567 90.1668 5.91818 90.1668 6.47684V12.0295H88.7101V6.46118C88.7101 6.01738 88.6448 5.66234 88.5143 5.39607C88.3837 5.12457 88.1932 4.92877 87.9426 4.80869C87.6919 4.68338 87.3839 4.62072 87.0184 4.62072C86.6581 4.62072 86.3292 4.69643 86.0316 4.84784C85.7392 4.99926 85.486 5.2081 85.2719 5.47438C85.0631 5.74066 84.8986 6.0461 84.7785 6.3907C84.6637 6.73007 84.6062 7.09033 84.6062 7.47148ZM97.3328 10.5807V6.2184C97.3328 5.88424 97.2649 5.59447 97.1292 5.34907C96.9986 5.09846 96.8002 4.90528 96.534 4.76953C96.2677 4.63378 95.9388 4.5659 95.5472 4.5659C95.1817 4.5659 94.8606 4.62856 94.5839 4.75386C94.3124 4.87917 94.0983 5.04364 93.9417 5.24726C93.7902 5.45089 93.7145 5.67018 93.7145 5.90513H92.2657C92.2657 5.6023 92.344 5.30208 92.5006 5.00448C92.6573 4.70687 92.8818 4.43798 93.1742 4.19781C93.4718 3.95242 93.8268 3.75923 94.2393 3.61826C94.657 3.47207 95.1216 3.39897 95.6333 3.39897C96.2494 3.39897 96.7924 3.5034 97.2623 3.71224C97.7374 3.92109 98.1081 4.23697 98.3744 4.65988C98.6459 5.07757 98.7817 5.6023 98.7817 6.23406V10.1813C98.7817 10.4632 98.8052 10.7634 98.8522 11.0819C98.9044 11.4004 98.9801 11.6745 99.0793 11.9042V12.0295H97.5678C97.4947 11.8625 97.4372 11.6406 97.3955 11.3638C97.3537 11.0819 97.3328 10.8208 97.3328 10.5807ZM97.5834 6.89193L97.5991 7.91005H96.1345C95.7221 7.91005 95.354 7.94399 95.0303 8.01186C94.7066 8.07452 94.4351 8.17111 94.2158 8.30164C93.9965 8.43217 93.8294 8.59663 93.7145 8.79504C93.5997 8.98822 93.5422 9.21534 93.5422 9.4764C93.5422 9.74268 93.6023 9.98546 93.7224 10.2048C93.8425 10.424 94.0226 10.5989 94.2628 10.7295C94.5082 10.8548 94.8084 10.9174 95.1634 10.9174C95.6072 10.9174 95.9988 10.8235 96.3382 10.6355C96.6775 10.4475 96.9464 10.2178 97.1448 9.9463C97.3485 9.6748 97.4581 9.41113 97.4738 9.1553L98.0925 9.85232C98.0559 10.0716 97.9567 10.3144 97.7949 10.5807C97.633 10.847 97.4163 11.1028 97.1448 11.3482C96.8786 11.5884 96.5601 11.7894 96.1894 11.9512C95.8239 12.1079 95.4114 12.1862 94.952 12.1862C94.3776 12.1862 93.8738 12.0739 93.4404 11.8494C93.0123 11.6249 92.6781 11.3247 92.438 10.9488C92.203 10.5676 92.0855 10.1421 92.0855 9.67219C92.0855 9.21795 92.1743 8.81853 92.3518 8.47394C92.5293 8.12412 92.7852 7.83435 93.1193 7.60461C93.4535 7.36966 93.8555 7.19214 94.3254 7.07206C94.7953 6.95197 95.32 6.89193 95.8996 6.89193H97.5834ZM104.608 3.55561V4.66771H100.027V3.55561H104.608ZM101.578 1.49586H103.026V9.93064C103.026 10.2178 103.071 10.4345 103.16 10.5807C103.248 10.7269 103.363 10.8235 103.504 10.8704C103.645 10.9174 103.797 10.9409 103.958 10.9409C104.079 10.9409 104.204 10.9305 104.334 10.9096C104.47 10.8835 104.572 10.8626 104.64 10.847L104.648 12.0295C104.533 12.0661 104.381 12.1 104.193 12.1314C104.011 12.1679 103.789 12.1862 103.528 12.1862C103.173 12.1862 102.846 12.1157 102.549 11.9747C102.251 11.8338 102.014 11.5988 101.836 11.2699C101.664 10.9357 101.578 10.4867 101.578 9.92281V1.49586ZM110.279 0H111.735V10.3849L111.61 12.0295H110.279V0ZM117.46 7.72209V7.88656C117.46 8.50265 117.387 9.07437 117.241 9.60171C117.095 10.1238 116.881 10.5781 116.599 10.9644C116.317 11.3508 115.972 11.651 115.565 11.8651C115.158 12.0791 114.691 12.1862 114.163 12.1862C113.625 12.1862 113.153 12.0948 112.746 11.9121C112.344 11.7241 112.004 11.4552 111.728 11.1054C111.451 10.7556 111.229 10.3327 111.062 9.83666C110.9 9.34065 110.788 8.78199 110.725 8.16067V7.44015C110.788 6.81361 110.9 6.25234 111.062 5.75633C111.229 5.26032 111.451 4.8374 111.728 4.48758C112.004 4.13255 112.344 3.86366 112.746 3.68092C113.148 3.49295 113.615 3.39897 114.148 3.39897C114.68 3.39897 115.153 3.5034 115.565 3.71224C115.978 3.91587 116.322 4.20825 116.599 4.5894C116.881 4.97054 117.095 5.42739 117.241 5.95995C117.387 6.48729 117.46 7.07467 117.46 7.72209ZM116.004 7.88656V7.72209C116.004 7.29918 115.964 6.90237 115.886 6.53167C115.808 6.15574 115.683 5.82681 115.51 5.54487C115.338 5.2577 115.111 5.03319 114.829 4.87134C114.547 4.70426 114.2 4.62072 113.787 4.62072C113.422 4.62072 113.103 4.68338 112.832 4.80869C112.566 4.93399 112.338 5.10368 112.15 5.31775C111.962 5.52659 111.808 5.76677 111.688 6.03827C111.574 6.30455 111.487 6.58127 111.43 6.86843V8.75588C111.513 9.12136 111.649 9.47379 111.837 9.81316C112.03 10.1473 112.286 10.4214 112.605 10.6355C112.928 10.8496 113.328 10.9566 113.803 10.9566C114.195 10.9566 114.529 10.8783 114.805 10.7216C115.087 10.5598 115.314 10.3379 115.487 10.0559C115.664 9.77401 115.795 9.44768 115.878 9.07698C115.962 8.70628 116.004 8.30947 116.004 7.88656ZM118.909 7.88656V7.70643C118.909 7.09555 118.998 6.52906 119.176 6.00694C119.353 5.4796 119.609 5.02275 119.943 4.63639C120.277 4.2448 120.682 3.94197 121.157 3.72791C121.632 3.50862 122.165 3.39897 122.755 3.39897C123.35 3.39897 123.885 3.50862 124.36 3.72791C124.84 3.94197 125.248 4.2448 125.582 4.63639C125.921 5.02275 126.18 5.4796 126.357 6.00694C126.535 6.52906 126.623 7.09555 126.623 7.70643V7.88656C126.623 8.49743 126.535 9.06393 126.357 9.58604C126.18 10.1082 125.921 10.565 125.582 10.9566C125.248 11.343 124.843 11.6458 124.368 11.8651C123.898 12.0791 123.365 12.1862 122.77 12.1862C122.175 12.1862 121.64 12.0791 121.165 11.8651C120.69 11.6458 120.282 11.343 119.943 10.9566C119.609 10.565 119.353 10.1082 119.176 9.58604C118.998 9.06393 118.909 8.49743 118.909 7.88656ZM120.358 7.70643V7.88656C120.358 8.30947 120.408 8.70889 120.507 9.08481C120.606 9.45551 120.755 9.78445 120.953 10.0716C121.157 10.3588 121.41 10.5859 121.713 10.753C122.016 10.9148 122.368 10.9958 122.77 10.9958C123.167 10.9958 123.514 10.9148 123.812 10.753C124.115 10.5859 124.365 10.3588 124.564 10.0716C124.762 9.78445 124.911 9.45551 125.01 9.08481C125.115 8.70889 125.167 8.30947 125.167 7.88656V7.70643C125.167 7.28873 125.115 6.89454 125.01 6.52384C124.911 6.14791 124.76 5.81637 124.556 5.5292C124.358 5.23682 124.107 5.00709 123.804 4.84001C123.506 4.67294 123.157 4.5894 122.755 4.5894C122.358 4.5894 122.008 4.67294 121.705 4.84001C121.408 5.00709 121.157 5.23682 120.953 5.5292C120.755 5.81637 120.606 6.14791 120.507 6.52384C120.408 6.89454 120.358 7.28873 120.358 7.70643ZM131.988 3.55561V4.66771H127.407V3.55561H131.988ZM128.957 1.49586H130.406V9.93064C130.406 10.2178 130.451 10.4345 130.539 10.5807C130.628 10.7269 130.743 10.8235 130.884 10.8704C131.025 10.9174 131.176 10.9409 131.338 10.9409C131.458 10.9409 131.584 10.9305 131.714 10.9096C131.85 10.8835 131.952 10.8626 132.02 10.847L132.027 12.0295C131.913 12.0661 131.761 12.1 131.573 12.1314C131.39 12.1679 131.169 12.1862 130.907 12.1862C130.552 12.1862 130.226 12.1157 129.928 11.9747C129.631 11.8338 129.393 11.5988 129.216 11.2699C129.043 10.9357 128.957 10.4867 128.957 9.92281V1.49586ZM140.047 11.1524L142.404 3.55561H143.955L140.556 13.3374C140.478 13.5463 140.373 13.7708 140.243 14.011C140.118 14.2564 139.956 14.4887 139.757 14.708C139.559 14.9273 139.319 15.1048 139.037 15.2406C138.76 15.3815 138.429 15.452 138.042 15.452C137.927 15.452 137.781 15.4363 137.604 15.405C137.426 15.3737 137.301 15.3476 137.228 15.3267L137.22 14.1519C137.262 14.1572 137.327 14.1624 137.416 14.1676C137.51 14.1781 137.575 14.1833 137.611 14.1833C137.94 14.1833 138.22 14.1389 138.449 14.0501C138.679 13.9666 138.872 13.823 139.029 13.6194C139.191 13.421 139.329 13.1469 139.444 12.7971L140.047 11.1524ZM138.316 3.55561L140.517 10.1343L140.893 11.6615L139.851 12.194L136.734 3.55561H138.316ZM144.754 7.88656V7.70643C144.754 7.09555 144.843 6.52906 145.02 6.00694C145.198 5.4796 145.454 5.02275 145.788 4.63639C146.122 4.2448 146.527 3.94197 147.002 3.72791C147.477 3.50862 148.009 3.39897 148.599 3.39897C149.195 3.39897 149.73 3.50862 150.205 3.72791C150.685 3.94197 151.092 4.2448 151.427 4.63639C151.766 5.02275 152.024 5.4796 152.202 6.00694C152.379 6.52906 152.468 7.09555 152.468 7.70643V7.88656C152.468 8.49743 152.379 9.06393 152.202 9.58604C152.024 10.1082 151.766 10.565 151.427 10.9566C151.092 11.343 150.688 11.6458 150.213 11.8651C149.743 12.0791 149.21 12.1862 148.615 12.1862C148.02 12.1862 147.485 12.0791 147.009 11.8651C146.534 11.6458 146.127 11.343 145.788 10.9566C145.454 10.565 145.198 10.1082 145.02 9.58604C144.843 9.06393 144.754 8.49743 144.754 7.88656ZM146.203 7.70643V7.88656C146.203 8.30947 146.252 8.70889 146.352 9.08481C146.451 9.45551 146.6 9.78445 146.798 10.0716C147.002 10.3588 147.255 10.5859 147.558 10.753C147.861 10.9148 148.213 10.9958 148.615 10.9958C149.012 10.9958 149.359 10.9148 149.657 10.753C149.959 10.5859 150.21 10.3588 150.408 10.0716C150.607 9.78445 150.756 9.45551 150.855 9.08481C150.959 8.70889 151.012 8.30947 151.012 7.88656V7.70643C151.012 7.28873 150.959 6.89454 150.855 6.52384C150.756 6.14791 150.604 5.81637 150.401 5.5292C150.202 5.23682 149.952 5.00709 149.649 4.84001C149.351 4.67294 149.001 4.5894 148.599 4.5894C148.203 4.5894 147.853 4.67294 147.55 4.84001C147.252 5.00709 147.002 5.23682 146.798 5.5292C146.6 5.81637 146.451 6.14791 146.352 6.52384C146.252 6.89454 146.203 7.28873 146.203 7.70643ZM159.47 10.0716V3.55561H160.926V12.0295H159.54L159.47 10.0716ZM159.744 8.28598L160.347 8.27031C160.347 8.8342 160.287 9.35631 160.167 9.83666C160.052 10.3118 159.864 10.7243 159.603 11.0741C159.342 11.4239 159 11.698 158.577 11.8964C158.154 12.0896 157.64 12.1862 157.034 12.1862C156.622 12.1862 156.243 12.1261 155.899 12.006C155.559 11.886 155.267 11.7006 155.021 11.45C154.776 11.1994 154.585 10.8731 154.45 10.471C154.319 10.069 154.254 9.58604 154.254 9.02216V3.55561H155.703V9.03782C155.703 9.41897 155.744 9.73485 155.828 9.98546C155.917 10.2309 156.034 10.4266 156.18 10.5728C156.332 10.7138 156.499 10.813 156.682 10.8704C156.87 10.9279 157.063 10.9566 157.261 10.9566C157.877 10.9566 158.366 10.8391 158.726 10.6042C159.086 10.364 159.344 10.0429 159.501 9.64087C159.663 9.23362 159.744 8.78199 159.744 8.28598ZM164.584 4.887V12.0295H163.135V3.55561H164.545L164.584 4.887ZM167.231 3.50862L167.223 4.85568C167.103 4.82957 166.988 4.81391 166.879 4.80869C166.774 4.79824 166.654 4.79302 166.518 4.79302C166.184 4.79302 165.889 4.84523 165.633 4.94966C165.378 5.05408 165.161 5.20027 164.983 5.38823C164.806 5.5762 164.665 5.80071 164.56 6.06176C164.461 6.3176 164.396 6.59954 164.365 6.90759L163.957 7.14254C163.957 6.63087 164.007 6.15052 164.106 5.7015C164.211 5.25248 164.37 4.85568 164.584 4.51108C164.798 4.16126 165.069 3.88976 165.398 3.69658C165.733 3.49817 166.129 3.39897 166.589 3.39897C166.693 3.39897 166.813 3.41203 166.949 3.43813C167.085 3.45902 167.179 3.48251 167.231 3.50862ZM178.039 3.55561H179.355V11.8494C179.355 12.596 179.203 13.233 178.9 13.7604C178.597 14.2877 178.175 14.6871 177.632 14.9586C177.094 15.2353 176.472 15.3737 175.768 15.3737C175.475 15.3737 175.131 15.3267 174.734 15.2327C174.342 15.144 173.956 14.9899 173.575 14.7707C173.199 14.5566 172.883 14.2668 172.627 13.9013L173.387 13.0398C173.742 13.468 174.113 13.7656 174.499 13.9327C174.89 14.0997 175.277 14.1833 175.658 14.1833C176.117 14.1833 176.514 14.0971 176.848 13.9248C177.183 13.7525 177.441 13.4967 177.624 13.1573C177.812 12.8232 177.906 12.4107 177.906 11.9199V5.41956L178.039 3.55561ZM172.204 7.88656V7.72209C172.204 7.07467 172.28 6.48729 172.431 5.95995C172.588 5.42739 172.81 4.97054 173.097 4.5894C173.389 4.20825 173.742 3.91587 174.154 3.71224C174.567 3.5034 175.031 3.39897 175.548 3.39897C176.081 3.39897 176.546 3.49295 176.942 3.68092C177.344 3.86366 177.684 4.13255 177.961 4.48758C178.242 4.8374 178.464 5.26032 178.626 5.75633C178.788 6.25234 178.9 6.81361 178.963 7.44015V8.16067C178.906 8.78199 178.793 9.34065 178.626 9.83666C178.464 10.3327 178.242 10.7556 177.961 11.1054C177.684 11.4552 177.344 11.7241 176.942 11.9121C176.54 12.0948 176.07 12.1862 175.533 12.1862C175.026 12.1862 174.567 12.0791 174.154 11.8651C173.747 11.651 173.397 11.3508 173.105 10.9644C172.812 10.5781 172.588 10.1238 172.431 9.60171C172.28 9.07437 172.204 8.50265 172.204 7.88656ZM173.653 7.72209V7.88656C173.653 8.30947 173.695 8.70628 173.778 9.07698C173.867 9.44768 174 9.77401 174.178 10.0559C174.361 10.3379 174.593 10.5598 174.875 10.7216C175.157 10.8783 175.494 10.9566 175.885 10.9566C176.365 10.9566 176.762 10.8548 177.076 10.6512C177.389 10.4475 177.637 10.1786 177.82 9.84449C178.008 9.51034 178.154 9.14747 178.258 8.75588V6.86843C178.201 6.58127 178.112 6.30455 177.992 6.03827C177.877 5.76677 177.726 5.52659 177.538 5.31775C177.355 5.10368 177.128 4.93399 176.856 4.80869C176.585 4.68338 176.266 4.62072 175.901 4.62072C175.504 4.62072 175.162 4.70426 174.875 4.87134C174.593 5.03319 174.361 5.2577 174.178 5.54487C174 5.82681 173.867 6.15574 173.778 6.53167C173.695 6.90237 173.653 7.29918 173.653 7.72209ZM186.552 10.5807V6.2184C186.552 5.88424 186.484 5.59447 186.348 5.34907C186.218 5.09846 186.019 4.90528 185.753 4.76953C185.487 4.63378 185.158 4.5659 184.766 4.5659C184.401 4.5659 184.08 4.62856 183.803 4.75386C183.531 4.87917 183.317 5.04364 183.161 5.24726C183.009 5.45089 182.934 5.67018 182.934 5.90513H181.485C181.485 5.6023 181.563 5.30208 181.72 5.00448C181.876 4.70687 182.101 4.43798 182.393 4.19781C182.691 3.95242 183.046 3.75923 183.458 3.61826C183.876 3.47207 184.341 3.39897 184.852 3.39897C185.469 3.39897 186.012 3.5034 186.481 3.71224C186.957 3.92109 187.327 4.23697 187.594 4.65988C187.865 5.07757 188.001 5.6023 188.001 6.23406V10.1813C188.001 10.4632 188.024 10.7634 188.071 11.0819C188.123 11.4004 188.199 11.6745 188.298 11.9042V12.0295H186.787C186.714 11.8625 186.656 11.6406 186.615 11.3638C186.573 11.0819 186.552 10.8208 186.552 10.5807ZM186.803 6.89193L186.818 7.91005H185.354C184.941 7.91005 184.573 7.94399 184.249 8.01186C183.926 8.07452 183.654 8.17111 183.435 8.30164C183.216 8.43217 183.049 8.59663 182.934 8.79504C182.819 8.98822 182.761 9.21534 182.761 9.4764C182.761 9.74268 182.821 9.98546 182.941 10.2048C183.062 10.424 183.242 10.5989 183.482 10.7295C183.727 10.8548 184.027 10.9174 184.383 10.9174C184.826 10.9174 185.218 10.8235 185.557 10.6355C185.897 10.4475 186.166 10.2178 186.364 9.9463C186.568 9.6748 186.677 9.41113 186.693 9.1553L187.312 9.85232C187.275 10.0716 187.176 10.3144 187.014 10.5807C186.852 10.847 186.635 11.1028 186.364 11.3482C186.098 11.5884 185.779 11.7894 185.408 11.9512C185.043 12.1079 184.631 12.1862 184.171 12.1862C183.597 12.1862 183.093 12.0739 182.66 11.8494C182.231 11.6249 181.897 11.3247 181.657 10.9488C181.422 10.5676 181.305 10.1421 181.305 9.67219C181.305 9.21795 181.393 8.81853 181.571 8.47394C181.748 8.12412 182.004 7.83435 182.338 7.60461C182.673 7.36966 183.075 7.19214 183.545 7.07206C184.014 6.95197 184.539 6.89193 185.119 6.89193H186.803ZM193.828 3.55561V4.66771H189.246V3.55561H193.828ZM190.797 1.49586H192.246V9.93064C192.246 10.2178 192.29 10.4345 192.379 10.5807C192.467 10.7269 192.582 10.8235 192.723 10.8704C192.864 10.9174 193.016 10.9409 193.178 10.9409C193.298 10.9409 193.423 10.9305 193.553 10.9096C193.689 10.8835 193.791 10.8626 193.859 10.847L193.867 12.0295C193.752 12.0661 193.6 12.1 193.413 12.1314C193.23 12.1679 193.008 12.1862 192.747 12.1862C192.392 12.1862 192.065 12.1157 191.768 11.9747C191.47 11.8338 191.233 11.5988 191.055 11.2699C190.883 10.9357 190.797 10.4867 190.797 9.92281V1.49586ZM199.044 12.1862C198.454 12.1862 197.918 12.087 197.438 11.8886C196.963 11.6849 196.553 11.4004 196.208 11.0349C195.869 10.6694 195.608 10.2361 195.425 9.73485C195.243 9.23362 195.151 8.68539 195.151 8.09018V7.76125C195.151 7.07206 195.253 6.45857 195.457 5.92079C195.66 5.37779 195.937 4.91833 196.287 4.54241C196.637 4.16648 197.033 3.88193 197.477 3.68875C197.921 3.49556 198.38 3.39897 198.856 3.39897C199.461 3.39897 199.983 3.5034 200.422 3.71224C200.866 3.92109 201.229 4.21347 201.511 4.5894C201.792 4.9601 202.001 5.39868 202.137 5.90513C202.273 6.40636 202.341 6.95458 202.341 7.54979V8.19983H196.013V7.01723H200.892V6.90759C200.871 6.53167 200.793 6.16619 200.657 5.81115C200.526 5.45611 200.318 5.16372 200.03 4.93399C199.743 4.70426 199.352 4.5894 198.856 4.5894C198.527 4.5894 198.224 4.65988 197.947 4.80085C197.67 4.9366 197.433 5.14023 197.234 5.41173C197.036 5.68323 196.882 6.01477 196.772 6.40636C196.663 6.79795 196.608 7.24958 196.608 7.76125V8.09018C196.608 8.49221 196.663 8.87075 196.772 9.22578C196.887 9.5756 197.052 9.88365 197.266 10.1499C197.485 10.4162 197.749 10.6251 198.057 10.7765C198.37 10.9279 198.725 11.0036 199.122 11.0036C199.634 11.0036 200.067 10.8992 200.422 10.6903C200.777 10.4815 201.088 10.2021 201.354 9.85232L202.231 10.5493C202.048 10.8261 201.816 11.0897 201.534 11.3404C201.252 11.591 200.905 11.7946 200.492 11.9512C200.085 12.1079 199.602 12.1862 199.044 12.1862ZM206.178 10.5259L208.355 3.55561H209.311L209.123 4.94182L206.907 12.0295H205.975L206.178 10.5259ZM204.714 3.55561L206.57 10.6042L206.703 12.0295H205.724L203.265 3.55561H204.714ZM211.394 10.5493L213.164 3.55561H214.605L212.146 12.0295H211.175L211.394 10.5493ZM209.522 3.55561L211.653 10.4084L211.895 12.0295H210.971L208.692 4.92616L208.504 3.55561H209.522ZM221.09 10.5807V6.2184C221.09 5.88424 221.022 5.59447 220.886 5.34907C220.756 5.09846 220.557 4.90528 220.291 4.76953C220.025 4.63378 219.696 4.5659 219.304 4.5659C218.939 4.5659 218.618 4.62856 218.341 4.75386C218.069 4.87917 217.855 5.04364 217.699 5.24726C217.547 5.45089 217.472 5.67018 217.472 5.90513H216.023C216.023 5.6023 216.101 5.30208 216.258 5.00448C216.414 4.70687 216.639 4.43798 216.931 4.19781C217.229 3.95242 217.584 3.75923 217.996 3.61826C218.414 3.47207 218.879 3.39897 219.39 3.39897C220.006 3.39897 220.549 3.5034 221.019 3.71224C221.495 3.92109 221.865 4.23697 222.131 4.65988C222.403 5.07757 222.539 5.6023 222.539 6.23406V10.1813C222.539 10.4632 222.562 10.7634 222.609 11.0819C222.661 11.4004 222.737 11.6745 222.836 11.9042V12.0295H221.325C221.252 11.8625 221.194 11.6406 221.153 11.3638C221.111 11.0819 221.09 10.8208 221.09 10.5807ZM221.34 6.89193L221.356 7.91005H219.892C219.479 7.91005 219.111 7.94399 218.787 8.01186C218.464 8.07452 218.192 8.17111 217.973 8.30164C217.754 8.43217 217.586 8.59663 217.472 8.79504C217.357 8.98822 217.299 9.21534 217.299 9.4764C217.299 9.74268 217.359 9.98546 217.479 10.2048C217.6 10.424 217.78 10.5989 218.02 10.7295C218.265 10.8548 218.565 10.9174 218.92 10.9174C219.364 10.9174 219.756 10.8235 220.095 10.6355C220.435 10.4475 220.704 10.2178 220.902 9.9463C221.106 9.6748 221.215 9.41113 221.231 9.1553L221.85 9.85232C221.813 10.0716 221.714 10.3144 221.552 10.5807C221.39 10.847 221.173 11.1028 220.902 11.3482C220.636 11.5884 220.317 11.7894 219.946 11.9512C219.581 12.1079 219.168 12.1862 218.709 12.1862C218.135 12.1862 217.631 12.0739 217.198 11.8494C216.769 11.6249 216.435 11.3247 216.195 10.9488C215.96 10.5676 215.843 10.1421 215.843 9.67219C215.843 9.21795 215.931 8.81853 216.109 8.47394C216.286 8.12412 216.542 7.83435 216.876 7.60461C217.211 7.36966 217.613 7.19214 218.082 7.07206C218.552 6.95197 219.077 6.89193 219.657 6.89193H221.34ZM227.073 11.1524L229.431 3.55561H230.981L227.582 13.3374C227.504 13.5463 227.4 13.7708 227.269 14.011C227.144 14.2564 226.982 14.4887 226.784 14.708C226.585 14.9273 226.345 15.1048 226.063 15.2406C225.786 15.3815 225.455 15.452 225.068 15.452C224.954 15.452 224.807 15.4363 224.63 15.405C224.452 15.3737 224.327 15.3476 224.254 15.3267L224.246 14.1519C224.288 14.1572 224.353 14.1624 224.442 14.1676C224.536 14.1781 224.601 14.1833 224.638 14.1833C224.967 14.1833 225.246 14.1389 225.476 14.0501C225.705 13.9666 225.899 13.823 226.055 13.6194C226.217 13.421 226.355 13.1469 226.47 12.7971L227.073 11.1524ZM225.343 3.55561L227.543 10.1343L227.919 11.6615L226.878 12.194L223.76 3.55561H225.343ZM239.816 3.55561V4.66771H235.234V3.55561H239.816ZM236.785 1.49586H238.234V9.93064C238.234 10.2178 238.278 10.4345 238.367 10.5807C238.455 10.7269 238.57 10.8235 238.711 10.8704C238.852 10.9174 239.004 10.9409 239.166 10.9409C239.286 10.9409 239.411 10.9305 239.541 10.9096C239.677 10.8835 239.779 10.8626 239.847 10.847L239.855 12.0295C239.74 12.0661 239.588 12.1 239.4 12.1314C239.218 12.1679 238.996 12.1862 238.735 12.1862C238.38 12.1862 238.053 12.1157 237.756 11.9747C237.458 11.8338 237.221 11.5988 237.043 11.2699C236.871 10.9357 236.785 10.4867 236.785 9.92281V1.49586ZM240.975 7.88656V7.70643C240.975 7.09555 241.063 6.52906 241.241 6.00694C241.418 5.4796 241.674 5.02275 242.008 4.63639C242.343 4.2448 242.747 3.94197 243.222 3.72791C243.697 3.50862 244.23 3.39897 244.82 3.39897C245.415 3.39897 245.95 3.50862 246.426 3.72791C246.906 3.94197 247.313 4.2448 247.647 4.63639C247.987 5.02275 248.245 5.4796 248.423 6.00694C248.6 6.52906 248.689 7.09555 248.689 7.70643V7.88656C248.689 8.49743 248.6 9.06393 248.423 9.58604C248.245 10.1082 247.987 10.565 247.647 10.9566C247.313 11.343 246.908 11.6458 246.433 11.8651C245.963 12.0791 245.431 12.1862 244.836 12.1862C244.24 12.1862 243.705 12.0791 243.23 11.8651C242.755 11.6458 242.348 11.343 242.008 10.9566C241.674 10.565 241.418 10.1082 241.241 9.58604C241.063 9.06393 240.975 8.49743 240.975 7.88656ZM242.424 7.70643V7.88656C242.424 8.30947 242.473 8.70889 242.572 9.08481C242.672 9.45551 242.82 9.78445 243.019 10.0716C243.222 10.3588 243.476 10.5859 243.778 10.753C244.081 10.9148 244.434 10.9958 244.836 10.9958C245.233 10.9958 245.58 10.9148 245.877 10.753C246.18 10.5859 246.431 10.3588 246.629 10.0716C246.828 9.78445 246.976 9.45551 247.076 9.08481C247.18 8.70889 247.232 8.30947 247.232 7.88656V7.70643C247.232 7.28873 247.18 6.89454 247.076 6.52384C246.976 6.14791 246.825 5.81637 246.621 5.5292C246.423 5.23682 246.172 5.00709 245.869 4.84001C245.572 4.67294 245.222 4.5894 244.82 4.5894C244.423 4.5894 244.073 4.67294 243.771 4.84001C243.473 5.00709 243.222 5.23682 243.019 5.5292C242.82 5.81637 242.672 6.14791 242.572 6.52384C242.473 6.89454 242.424 7.28873 242.424 7.70643ZM259.669 10.0716V3.55561H261.126V12.0295H259.739L259.669 10.0716ZM259.943 8.28598L260.546 8.27031C260.546 8.8342 260.486 9.35631 260.366 9.83666C260.251 10.3118 260.063 10.7243 259.802 11.0741C259.541 11.4239 259.199 11.698 258.776 11.8964C258.353 12.0896 257.839 12.1862 257.233 12.1862C256.821 12.1862 256.442 12.1261 256.098 12.006C255.758 11.886 255.466 11.7006 255.221 11.45C254.975 11.1994 254.785 10.8731 254.649 10.471C254.518 10.069 254.453 9.58604 254.453 9.02216V3.55561H255.902V9.03782C255.902 9.41897 255.944 9.73485 256.027 9.98546C256.116 10.2309 256.233 10.4266 256.38 10.5728C256.531 10.7138 256.698 10.813 256.881 10.8704C257.069 10.9279 257.262 10.9566 257.46 10.9566C258.077 10.9566 258.565 10.8391 258.925 10.6042C259.285 10.364 259.544 10.0429 259.7 9.64087C259.862 9.23362 259.943 8.78199 259.943 8.28598ZM264.783 5.36474V12.0295H263.334V3.55561H264.705L264.783 5.36474ZM264.439 7.47148L263.835 7.44798C263.841 6.86843 263.927 6.33326 264.094 5.84247C264.261 5.34646 264.496 4.91572 264.799 4.55024C265.102 4.18476 265.462 3.90281 265.88 3.70441C266.302 3.50079 266.77 3.39897 267.281 3.39897C267.699 3.39897 268.075 3.45641 268.409 3.57127C268.743 3.68092 269.028 3.85843 269.263 4.10383C269.503 4.34922 269.686 4.66771 269.811 5.0593C269.936 5.44567 269.999 5.91818 269.999 6.47684V12.0295H268.542V6.46118C268.542 6.01738 268.477 5.66234 268.347 5.39607C268.216 5.12457 268.025 4.92877 267.775 4.80869C267.524 4.68338 267.216 4.62072 266.851 4.62072C266.49 4.62072 266.162 4.69643 265.864 4.84784C265.572 4.99926 265.318 5.2081 265.104 5.47438C264.895 5.74066 264.731 6.0461 264.611 6.3907C264.496 6.73007 264.439 7.09033 264.439 7.47148ZM273.774 0V12.0295H272.317V0H273.774ZM279.616 12.1862C279.026 12.1862 278.491 12.087 278.011 11.8886C277.536 11.6849 277.126 11.4004 276.781 11.0349C276.442 10.6694 276.181 10.2361 275.998 9.73485C275.815 9.23362 275.724 8.68539 275.724 8.09018V7.76125C275.724 7.07206 275.826 6.45857 276.029 5.92079C276.233 5.37779 276.51 4.91833 276.86 4.54241C277.209 4.16648 277.606 3.88193 278.05 3.68875C278.494 3.49556 278.953 3.39897 279.428 3.39897C280.034 3.39897 280.556 3.5034 280.995 3.71224C281.439 3.92109 281.801 4.21347 282.083 4.5894C282.365 4.9601 282.574 5.39868 282.71 5.90513C282.846 6.40636 282.914 6.95458 282.914 7.54979V8.19983H276.586V7.01723H281.465V6.90759C281.444 6.53167 281.366 6.16619 281.23 5.81115C281.099 5.45611 280.89 5.16372 280.603 4.93399C280.316 4.70426 279.924 4.5894 279.428 4.5894C279.1 4.5894 278.797 4.65988 278.52 4.80085C278.243 4.9366 278.006 5.14023 277.807 5.41173C277.609 5.68323 277.455 6.01477 277.345 6.40636C277.236 6.79795 277.181 7.24958 277.181 7.76125V8.09018C277.181 8.49221 277.236 8.87075 277.345 9.22578C277.46 9.5756 277.625 9.88365 277.839 10.1499C278.058 10.4162 278.322 10.6251 278.63 10.7765C278.943 10.9279 279.298 11.0036 279.695 11.0036C280.206 11.0036 280.64 10.8992 280.995 10.6903C281.35 10.4815 281.661 10.2021 281.927 9.85232L282.804 10.5493C282.621 10.8261 282.389 11.0897 282.107 11.3404C281.825 11.591 281.478 11.7946 281.065 11.9512C280.658 12.1079 280.175 12.1862 279.616 12.1862ZM289.602 10.5807V6.2184C289.602 5.88424 289.534 5.59447 289.398 5.34907C289.268 5.09846 289.069 4.90528 288.803 4.76953C288.537 4.63378 288.208 4.5659 287.816 4.5659C287.451 4.5659 287.13 4.62856 286.853 4.75386C286.581 4.87917 286.367 5.04364 286.211 5.24726C286.059 5.45089 285.984 5.67018 285.984 5.90513H284.535C284.535 5.6023 284.613 5.30208 284.77 5.00448C284.926 4.70687 285.151 4.43798 285.443 4.19781C285.741 3.95242 286.096 3.75923 286.508 3.61826C286.926 3.47207 287.391 3.39897 287.902 3.39897C288.519 3.39897 289.062 3.5034 289.531 3.71224C290.007 3.92109 290.377 4.23697 290.644 4.65988C290.915 5.07757 291.051 5.6023 291.051 6.23406V10.1813C291.051 10.4632 291.074 10.7634 291.121 11.0819C291.173 11.4004 291.249 11.6745 291.348 11.9042V12.0295H289.837C289.764 11.8625 289.706 11.6406 289.665 11.3638C289.623 11.0819 289.602 10.8208 289.602 10.5807ZM289.853 6.89193L289.868 7.91005H288.404C287.991 7.91005 287.623 7.94399 287.299 8.01186C286.976 8.07452 286.704 8.17111 286.485 8.30164C286.266 8.43217 286.098 8.59663 285.984 8.79504C285.869 8.98822 285.811 9.21534 285.811 9.4764C285.811 9.74268 285.871 9.98546 285.991 10.2048C286.112 10.424 286.292 10.5989 286.532 10.7295C286.777 10.8548 287.077 10.9174 287.433 10.9174C287.876 10.9174 288.268 10.8235 288.607 10.6355C288.947 10.4475 289.216 10.2178 289.414 9.9463C289.618 9.6748 289.727 9.41113 289.743 9.1553L290.362 9.85232C290.325 10.0716 290.226 10.3144 290.064 10.5807C289.902 10.847 289.685 11.1028 289.414 11.3482C289.148 11.5884 288.829 11.7894 288.458 11.9512C288.093 12.1079 287.681 12.1862 287.221 12.1862C286.647 12.1862 286.143 12.0739 285.71 11.8494C285.281 11.6249 284.947 11.3247 284.707 10.9488C284.472 10.5676 284.355 10.1421 284.355 9.67219C284.355 9.21795 284.443 8.81853 284.621 8.47394C284.798 8.12412 285.054 7.83435 285.388 7.60461C285.723 7.36966 286.125 7.19214 286.595 7.07206C287.064 6.95197 287.589 6.89193 288.169 6.89193H289.853ZM298.264 9.78184C298.264 9.57299 298.217 9.37981 298.123 9.20229C298.034 9.01955 297.849 8.85508 297.567 8.70889C297.29 8.55748 296.872 8.42695 296.314 8.3173C295.844 8.2181 295.418 8.10062 295.037 7.96487C294.661 7.82912 294.34 7.66466 294.074 7.47148C293.813 7.27829 293.612 7.05117 293.471 6.79011C293.33 6.52906 293.259 6.22362 293.259 5.8738C293.259 5.53965 293.332 5.22377 293.479 4.92616C293.63 4.62856 293.841 4.36489 294.113 4.13516C294.39 3.90543 294.721 3.7253 295.108 3.59477C295.494 3.46424 295.925 3.39897 296.4 3.39897C297.079 3.39897 297.658 3.51906 298.138 3.75923C298.619 3.99941 298.987 4.32051 299.243 4.72254C299.499 5.11934 299.627 5.56053 299.627 6.0461H298.178C298.178 5.81115 298.107 5.58403 297.966 5.36474C297.83 5.14023 297.629 4.95488 297.363 4.80869C297.102 4.66249 296.781 4.5894 296.4 4.5894C295.998 4.5894 295.671 4.65205 295.421 4.77736C295.175 4.89744 294.995 5.05147 294.88 5.23943C294.771 5.42739 294.716 5.6258 294.716 5.83464C294.716 5.99128 294.742 6.13225 294.794 6.25756C294.852 6.37764 294.951 6.4899 295.092 6.59432C295.233 6.69352 295.431 6.7875 295.687 6.87626C295.943 6.96502 296.269 7.05378 296.666 7.14254C297.361 7.29918 297.932 7.48714 298.381 7.70643C298.83 7.92572 299.164 8.19461 299.384 8.5131C299.603 8.83159 299.713 9.21795 299.713 9.67219C299.713 10.0429 299.634 10.3823 299.478 10.6903C299.326 10.9984 299.104 11.2646 298.812 11.4892C298.525 11.7084 298.18 11.8807 297.778 12.006C297.381 12.1261 296.935 12.1862 296.439 12.1862C295.692 12.1862 295.061 12.053 294.544 11.7868C294.027 11.5205 293.635 11.1759 293.369 10.753C293.103 10.3301 292.97 9.88365 292.97 9.41375H294.426C294.447 9.81055 294.562 10.1264 294.771 10.3614C294.98 10.5911 295.236 10.7556 295.538 10.8548C295.841 10.9488 296.141 10.9958 296.439 10.9958C296.836 10.9958 297.167 10.9435 297.434 10.8391C297.705 10.7347 297.911 10.5911 298.052 10.4084C298.193 10.2256 298.264 10.0168 298.264 9.78184ZM303.065 0V12.0295H301.616V0H303.065ZM302.72 7.47148L302.117 7.44798C302.122 6.86843 302.208 6.33326 302.375 5.84247C302.543 5.34646 302.777 4.91572 303.08 4.55024C303.383 4.18476 303.743 3.90281 304.161 3.70441C304.584 3.50079 305.051 3.39897 305.563 3.39897C305.981 3.39897 306.357 3.45641 306.691 3.57127C307.025 3.68092 307.309 3.85843 307.544 4.10383C307.785 4.34922 307.967 4.66771 308.093 5.0593C308.218 5.44567 308.281 5.91818 308.281 6.47684V12.0295H306.824V6.46118C306.824 6.01738 306.759 5.66234 306.628 5.39607C306.498 5.12457 306.307 4.92877 306.056 4.80869C305.806 4.68338 305.498 4.62072 305.132 4.62072C304.772 4.62072 304.443 4.69643 304.145 4.84784C303.853 4.99926 303.6 5.2081 303.386 5.47438C303.177 5.74066 303.012 6.0461 302.892 6.3907C302.777 6.73007 302.72 7.09033 302.72 7.47148ZM316.003 3.55561V12.0295H314.546V3.55561H316.003ZM314.436 1.3079C314.436 1.07295 314.507 0.874544 314.648 0.712688C314.794 0.550832 315.008 0.469904 315.29 0.469904C315.567 0.469904 315.778 0.550832 315.924 0.712688C316.076 0.874544 316.151 1.07295 316.151 1.3079C316.151 1.53241 316.076 1.72559 315.924 1.88745C315.778 2.04408 315.567 2.1224 315.29 2.1224C315.008 2.1224 314.794 2.04408 314.648 1.88745C314.507 1.72559 314.436 1.53241 314.436 1.3079ZM319.778 5.36474V12.0295H318.329V3.55561H319.699L319.778 5.36474ZM319.433 7.47148L318.83 7.44798C318.835 6.86843 318.921 6.33326 319.088 5.84247C319.255 5.34646 319.49 4.91572 319.793 4.55024C320.096 4.18476 320.456 3.90281 320.874 3.70441C321.297 3.50079 321.764 3.39897 322.276 3.39897C322.694 3.39897 323.07 3.45641 323.404 3.57127C323.738 3.68092 324.022 3.85843 324.257 4.10383C324.497 4.34922 324.68 4.66771 324.806 5.0593C324.931 5.44567 324.994 5.91818 324.994 6.47684V12.0295H323.537V6.46118C323.537 6.01738 323.472 5.66234 323.341 5.39607C323.21 5.12457 323.02 4.92877 322.769 4.80869C322.519 4.68338 322.211 4.62072 321.845 4.62072C321.485 4.62072 321.156 4.69643 320.858 4.84784C320.566 4.99926 320.313 5.2081 320.099 5.47438C319.89 5.74066 319.725 6.0461 319.605 6.3907C319.49 6.73007 319.433 7.09033 319.433 7.47148ZM332.684 3.55561H334V11.8494C334 12.596 333.849 13.233 333.546 13.7604C333.243 14.2877 332.82 14.6871 332.277 14.9586C331.739 15.2353 331.118 15.3737 330.413 15.3737C330.121 15.3737 329.776 15.3267 329.379 15.2327C328.988 15.144 328.601 14.9899 328.22 14.7707C327.844 14.5566 327.528 14.2668 327.273 13.9013L328.032 13.0398C328.387 13.468 328.758 13.7656 329.144 13.9327C329.536 14.0997 329.922 14.1833 330.303 14.1833C330.763 14.1833 331.16 14.0971 331.494 13.9248C331.828 13.7525 332.086 13.4967 332.269 13.1573C332.457 12.8232 332.551 12.4107 332.551 11.9199V5.41956L332.684 3.55561ZM326.85 7.88656V7.72209C326.85 7.07467 326.925 6.48729 327.077 5.95995C327.233 5.42739 327.455 4.97054 327.742 4.5894C328.035 4.20825 328.387 3.91587 328.8 3.71224C329.212 3.5034 329.677 3.39897 330.194 3.39897C330.726 3.39897 331.191 3.49295 331.588 3.68092C331.99 3.86366 332.329 4.13255 332.606 4.48758C332.888 4.8374 333.11 5.26032 333.272 5.75633C333.434 6.25234 333.546 6.81361 333.608 7.44015V8.16067C333.551 8.78199 333.439 9.34065 333.272 9.83666C333.11 10.3327 332.888 10.7556 332.606 11.1054C332.329 11.4552 331.99 11.7241 331.588 11.9121C331.186 12.0948 330.716 12.1862 330.178 12.1862C329.672 12.1862 329.212 12.0791 328.8 11.8651C328.392 11.651 328.043 11.3508 327.75 10.9644C327.458 10.5781 327.233 10.1238 327.077 9.60171C326.925 9.07437 326.85 8.50265 326.85 7.88656ZM328.298 7.72209V7.88656C328.298 8.30947 328.34 8.70628 328.424 9.07698C328.513 9.44768 328.646 9.77401 328.823 10.0559C329.006 10.3379 329.238 10.5598 329.52 10.7216C329.802 10.8783 330.139 10.9566 330.531 10.9566C331.011 10.9566 331.408 10.8548 331.721 10.6512C332.034 10.4475 332.282 10.1786 332.465 9.84449C332.653 9.51034 332.799 9.14747 332.904 8.75588V6.86843C332.846 6.58127 332.757 6.30455 332.637 6.03827C332.522 5.76677 332.371 5.52659 332.183 5.31775C332 5.10368 331.773 4.93399 331.502 4.80869C331.23 4.68338 330.912 4.62072 330.546 4.62072C330.149 4.62072 329.807 4.70426 329.52 4.87134C329.238 5.03319 329.006 5.2577 328.823 5.54487C328.646 5.82681 328.513 6.15574 328.424 6.53167C328.34 6.90237 328.298 7.29918 328.298 7.72209ZM70.8929 22.6024V23.7145H66.3113V22.6024H70.8929ZM67.862 20.5426H69.3109V28.9774C69.3109 29.2646 69.3552 29.4813 69.444 29.6275C69.5328 29.7736 69.6476 29.8702 69.7886 29.9172C69.9296 29.9642 70.081 29.9877 70.2428 29.9877C70.3629 29.9877 70.4882 29.9773 70.6188 29.9564C70.7545 29.9303 70.8563 29.9094 70.9242 29.8937L70.932 31.0763C70.8172 31.1129 70.6657 31.1468 70.4778 31.1781C70.295 31.2147 70.0731 31.233 69.8121 31.233C69.457 31.233 69.1307 31.1625 68.8331 31.0215C68.5355 30.8805 68.2979 30.6456 68.1204 30.3166C67.9481 29.9825 67.862 29.5335 67.862 28.9696V20.5426ZM74.0412 19.0468V31.0763H72.5924V19.0468H74.0412ZM73.6966 26.5183L73.0936 26.4948C73.0988 25.9152 73.185 25.38 73.352 24.8893C73.5191 24.3932 73.7541 23.9625 74.0569 23.597C74.3597 23.2315 74.72 22.9496 75.1377 22.7512C75.5606 22.5476 76.0279 22.4458 76.5395 22.4458C76.9572 22.4458 77.3332 22.5032 77.6673 22.6181C78.0015 22.7277 78.286 22.9052 78.521 23.1506C78.7611 23.396 78.9439 23.7145 79.0692 24.1061C79.1945 24.4924 79.2572 24.965 79.2572 25.5236V31.0763H77.8005V25.508C77.8005 25.0642 77.7352 24.7091 77.6047 24.4428C77.4741 24.1713 77.2836 23.9756 77.0329 23.8555C76.7823 23.7302 76.4743 23.6675 76.1088 23.6675C75.7485 23.6675 75.4196 23.7432 75.122 23.8946C74.8296 24.046 74.5764 24.2549 74.3623 24.5212C74.1535 24.7874 73.989 25.0929 73.8689 25.4375C73.7541 25.7769 73.6966 26.1371 73.6966 26.5183ZM84.943 31.233C84.353 31.233 83.8178 31.1338 83.3375 30.9354C82.8624 30.7317 82.4525 30.4472 82.1079 30.0817C81.7685 29.7162 81.5075 29.2829 81.3247 28.7816C81.142 28.2804 81.0506 27.7322 81.0506 27.137V26.808C81.0506 26.1188 81.1524 25.5054 81.3561 24.9676C81.5597 24.4246 81.8364 23.9651 82.1862 23.5892C82.536 23.2133 82.9329 22.9287 83.3767 22.7355C83.8204 22.5423 84.2799 22.4458 84.755 22.4458C85.3607 22.4458 85.8828 22.5502 86.3214 22.759C86.7652 22.9679 87.1281 23.2603 87.41 23.6362C87.6919 24.0069 87.9008 24.4455 88.0365 24.9519C88.1723 25.4531 88.2402 26.0014 88.2402 26.5966V27.2466H81.9121V26.064H86.7913V25.9544C86.7704 25.5784 86.6921 25.213 86.5563 24.8579C86.4258 24.5029 86.217 24.2105 85.9298 23.9808C85.6426 23.751 85.251 23.6362 84.755 23.6362C84.4261 23.6362 84.1233 23.7067 83.8466 23.8476C83.5698 23.9834 83.3323 24.187 83.1339 24.4585C82.9355 24.73 82.7814 25.0616 82.6718 25.4531C82.5621 25.8447 82.5073 26.2964 82.5073 26.808V27.137C82.5073 27.539 82.5621 27.9175 82.6718 28.2726C82.7867 28.6224 82.9511 28.9304 83.1652 29.1967C83.3845 29.463 83.6482 29.6718 83.9562 29.8232C84.2695 29.9747 84.6245 30.0504 85.0213 30.0504C85.533 30.0504 85.9663 29.9459 86.3214 29.7371C86.6764 29.5283 86.9871 29.2489 87.2534 28.8991L88.1305 29.5961C87.9478 29.8728 87.7154 30.1365 87.4335 30.3871C87.1515 30.6377 86.8043 30.8414 86.3919 30.998C85.9846 31.1546 85.5017 31.233 84.943 31.233ZM99.0949 29.1184V22.6024H100.552V31.0763H99.1654L99.0949 29.1184ZM99.3691 27.3328L99.9721 27.3171C99.9721 27.881 99.9121 28.4031 99.792 28.8834C99.6771 29.3586 99.4891 29.771 99.2281 30.1209C98.967 30.4707 98.625 30.7448 98.2021 30.9432C97.7792 31.1364 97.2649 31.233 96.6593 31.233C96.2468 31.233 95.8683 31.1729 95.5237 31.0528C95.1843 30.9327 94.8919 30.7474 94.6465 30.4968C94.4011 30.2462 94.2106 29.9198 94.0748 29.5178C93.9443 29.1158 93.879 28.6328 93.879 28.0689V22.6024H95.3279V28.0846C95.3279 28.4657 95.3696 28.7816 95.4532 29.0322C95.5419 29.2776 95.6594 29.4734 95.8056 29.6196C95.957 29.7606 96.1241 29.8598 96.3068 29.9172C96.4948 29.9747 96.688 30.0034 96.8864 30.0034C97.5025 30.0034 97.9907 29.8859 98.3509 29.6509C98.7112 29.4108 98.9696 29.0897 99.1263 28.6876C99.2881 28.2804 99.3691 27.8288 99.3691 27.3328ZM104.209 24.4115V31.0763H102.76V22.6024H104.131L104.209 24.4115ZM103.864 26.5183L103.261 26.4948C103.267 25.9152 103.353 25.38 103.52 24.8893C103.687 24.3932 103.922 23.9625 104.225 23.597C104.528 23.2315 104.888 22.9496 105.306 22.7512C105.728 22.5476 106.196 22.4458 106.707 22.4458C107.125 22.4458 107.501 22.5032 107.835 22.6181C108.169 22.7277 108.454 22.9052 108.689 23.1506C108.929 23.396 109.112 23.7145 109.237 24.1061C109.362 24.4924 109.425 24.965 109.425 25.5236V31.0763H107.968V25.508C107.968 25.0642 107.903 24.7091 107.773 24.4428C107.642 24.1713 107.451 23.9756 107.201 23.8555C106.95 23.7302 106.642 23.6675 106.277 23.6675C105.916 23.6675 105.587 23.7432 105.29 23.8946C104.997 24.046 104.744 24.2549 104.53 24.5212C104.321 24.7874 104.157 25.0929 104.037 25.4375C103.922 25.7769 103.864 26.1371 103.864 26.5183ZM113.075 24.2314V34.3343H111.618V22.6024H112.949L113.075 24.2314ZM118.784 26.7689V26.9333C118.784 27.5494 118.711 28.1211 118.565 28.6485C118.418 29.1706 118.204 29.6248 117.922 30.0112C117.646 30.3976 117.304 30.6978 116.896 30.9119C116.489 31.1259 116.022 31.233 115.495 31.233C114.957 31.233 114.482 31.1442 114.069 30.9667C113.657 30.7892 113.307 30.5307 113.02 30.1913C112.733 29.852 112.503 29.4447 112.331 28.9696C112.163 28.4945 112.049 27.9593 111.986 27.3641V26.4869C112.049 25.8604 112.166 25.2991 112.338 24.8031C112.511 24.3071 112.738 23.8842 113.02 23.5344C113.307 23.1793 113.654 22.9104 114.061 22.7277C114.469 22.5397 114.939 22.4458 115.471 22.4458C116.004 22.4458 116.476 22.5502 116.889 22.759C117.301 22.9626 117.648 23.255 117.93 23.6362C118.212 24.0173 118.424 24.4742 118.565 25.0067C118.711 25.5341 118.784 26.1214 118.784 26.7689ZM117.327 26.9333V26.7689C117.327 26.346 117.283 25.9491 117.194 25.5784C117.105 25.2025 116.967 24.8736 116.779 24.5916C116.596 24.3045 116.361 24.08 116.074 23.9181C115.787 23.751 115.445 23.6675 115.048 23.6675C114.683 23.6675 114.364 23.7302 114.093 23.8555C113.826 23.9808 113.599 24.1505 113.411 24.3645C113.223 24.5734 113.069 24.8135 112.949 25.085C112.834 25.3513 112.748 25.628 112.691 25.9152V27.9436C112.795 28.3091 112.941 28.6537 113.129 28.9774C113.317 29.2959 113.568 29.5544 113.881 29.7528C114.195 29.9459 114.589 30.0425 115.064 30.0425C115.455 30.0425 115.792 29.9616 116.074 29.7998C116.361 29.6327 116.596 29.4056 116.779 29.1184C116.967 28.8312 117.105 28.5023 117.194 28.1316C117.283 27.7557 117.327 27.3563 117.327 26.9333ZM125.629 29.6275V25.2652C125.629 24.931 125.561 24.6412 125.425 24.3959C125.295 24.1452 125.096 23.9521 124.83 23.8163C124.564 23.6806 124.235 23.6127 123.843 23.6127C123.478 23.6127 123.157 23.6753 122.88 23.8006C122.608 23.926 122.394 24.0904 122.238 24.294C122.086 24.4977 122.011 24.717 122.011 24.9519H120.562C120.562 24.6491 120.64 24.3489 120.797 24.0513C120.953 23.7537 121.178 23.4848 121.47 23.2446C121.768 22.9992 122.123 22.806 122.535 22.665C122.953 22.5188 123.418 22.4458 123.929 22.4458C124.545 22.4458 125.088 22.5502 125.558 22.759C126.033 22.9679 126.404 23.2837 126.67 23.7067C126.942 24.1244 127.078 24.6491 127.078 25.2808V29.228C127.078 29.51 127.101 29.8102 127.148 30.1287C127.2 30.4472 127.276 30.7213 127.375 30.951V31.0763H125.864C125.791 30.9092 125.733 30.6873 125.692 30.4106C125.65 30.1287 125.629 29.8676 125.629 29.6275ZM125.879 25.9387L125.895 26.9568H124.431C124.018 26.9568 123.65 26.9908 123.326 27.0586C123.003 27.1213 122.731 27.2179 122.512 27.3484C122.293 27.4789 122.125 27.6434 122.011 27.8418C121.896 28.035 121.838 28.2621 121.838 28.5232C121.838 28.7895 121.898 29.0322 122.018 29.2515C122.139 29.4708 122.319 29.6457 122.559 29.7763C122.804 29.9016 123.104 29.9642 123.459 29.9642C123.903 29.9642 124.295 29.8702 124.634 29.6823C124.974 29.4943 125.242 29.2646 125.441 28.9931C125.645 28.7216 125.754 28.4579 125.77 28.2021L126.389 28.8991C126.352 29.1184 126.253 29.3612 126.091 29.6275C125.929 29.8937 125.712 30.1496 125.441 30.395C125.175 30.6351 124.856 30.8362 124.485 30.998C124.12 31.1546 123.707 31.233 123.248 31.233C122.674 31.233 122.17 31.1207 121.736 30.8962C121.308 30.6717 120.974 30.3715 120.734 29.9955C120.499 29.6144 120.382 29.1889 120.382 28.719C120.382 28.2647 120.47 27.8653 120.648 27.5207C120.825 27.1709 121.081 26.8811 121.415 26.6514C121.75 26.4164 122.152 26.2389 122.621 26.1188C123.091 25.9987 123.616 25.9387 124.196 25.9387H125.879ZM130.806 23.9338V31.0763H129.357V22.6024H130.766L130.806 23.9338ZM133.453 22.5554L133.445 23.9025C133.325 23.8763 133.21 23.8607 133.1 23.8555C132.996 23.845 132.876 23.8398 132.74 23.8398C132.406 23.8398 132.111 23.892 131.855 23.9964C131.599 24.1009 131.383 24.2471 131.205 24.435C131.028 24.623 130.887 24.8475 130.782 25.1085C130.683 25.3644 130.618 25.6463 130.586 25.9544L130.179 26.1893C130.179 25.6776 130.229 25.1973 130.328 24.7483C130.432 24.2993 130.592 23.9025 130.806 23.5579C131.02 23.208 131.291 22.9365 131.62 22.7434C131.954 22.545 132.351 22.4458 132.811 22.4458C132.915 22.4458 133.035 22.4588 133.171 22.4849C133.307 22.5058 133.401 22.5293 133.453 22.5554ZM139.475 29.6275V25.2652C139.475 24.931 139.407 24.6412 139.272 24.3959C139.141 24.1452 138.943 23.9521 138.677 23.8163C138.41 23.6806 138.081 23.6127 137.69 23.6127C137.324 23.6127 137.003 23.6753 136.726 23.8006C136.455 23.926 136.241 24.0904 136.084 24.294C135.933 24.4977 135.857 24.717 135.857 24.9519H134.408C134.408 24.6491 134.487 24.3489 134.643 24.0513C134.8 23.7537 135.024 23.4848 135.317 23.2446C135.614 22.9992 135.969 22.806 136.382 22.665C136.8 22.5188 137.264 22.4458 137.776 22.4458C138.392 22.4458 138.935 22.5502 139.405 22.759C139.88 22.9679 140.251 23.2837 140.517 23.7067C140.788 24.1244 140.924 24.6491 140.924 25.2808V29.228C140.924 29.51 140.948 29.8102 140.995 30.1287C141.047 30.4472 141.123 30.7213 141.222 30.951V31.0763H139.71C139.637 30.9092 139.58 30.6873 139.538 30.4106C139.496 30.1287 139.475 29.8676 139.475 29.6275ZM139.726 25.9387L139.742 26.9568H138.277C137.865 26.9568 137.497 26.9908 137.173 27.0586C136.849 27.1213 136.578 27.2179 136.358 27.3484C136.139 27.4789 135.972 27.6434 135.857 27.8418C135.742 28.035 135.685 28.2621 135.685 28.5232C135.685 28.7895 135.745 29.0322 135.865 29.2515C135.985 29.4708 136.165 29.6457 136.405 29.7763C136.651 29.9016 136.951 29.9642 137.306 29.9642C137.75 29.9642 138.141 29.8702 138.481 29.6823C138.82 29.4943 139.089 29.2646 139.287 28.9931C139.491 28.7216 139.601 28.4579 139.616 28.2021L140.235 28.8991C140.198 29.1184 140.099 29.3612 139.937 29.6275C139.776 29.8937 139.559 30.1496 139.287 30.395C139.021 30.6351 138.703 30.8362 138.332 30.998C137.966 31.1546 137.554 31.233 137.095 31.233C136.52 31.233 136.016 31.1207 135.583 30.8962C135.155 30.6717 134.821 30.3715 134.581 29.9955C134.346 29.6144 134.228 29.1889 134.228 28.719C134.228 28.2647 134.317 27.8653 134.494 27.5207C134.672 27.1709 134.928 26.8811 135.262 26.6514C135.596 26.4164 135.998 26.2389 136.468 26.1188C136.938 25.9987 137.463 25.9387 138.042 25.9387H139.726ZM144.777 19.0468V31.0763H143.321V19.0468H144.777ZM148.678 19.0468V31.0763H147.221V19.0468H148.678ZM154.52 31.233C153.93 31.233 153.395 31.1338 152.915 30.9354C152.439 30.7317 152.03 30.4472 151.685 30.0817C151.346 29.7162 151.085 29.2829 150.902 28.7816C150.719 28.2804 150.628 27.7322 150.628 27.137V26.808C150.628 26.1188 150.73 25.5054 150.933 24.9676C151.137 24.4246 151.414 23.9651 151.763 23.5892C152.113 23.2133 152.51 22.9287 152.954 22.7355C153.398 22.5423 153.857 22.4458 154.332 22.4458C154.938 22.4458 155.46 22.5502 155.899 22.759C156.342 22.9679 156.705 23.2603 156.987 23.6362C157.269 24.0069 157.478 24.4455 157.614 24.9519C157.749 25.4531 157.817 26.0014 157.817 26.5966V27.2466H151.489V26.064H156.368V25.9544C156.348 25.5784 156.269 25.213 156.133 24.8579C156.003 24.5029 155.794 24.2105 155.507 23.9808C155.22 23.751 154.828 23.6362 154.332 23.6362C154.003 23.6362 153.7 23.7067 153.424 23.8476C153.147 23.9834 152.909 24.187 152.711 24.4585C152.513 24.73 152.359 25.0616 152.249 25.4531C152.139 25.8447 152.084 26.2964 152.084 26.808V27.137C152.084 27.539 152.139 27.9175 152.249 28.2726C152.364 28.6224 152.528 28.9304 152.742 29.1967C152.962 29.463 153.225 29.6718 153.533 29.8232C153.847 29.9747 154.202 30.0504 154.598 30.0504C155.11 30.0504 155.543 29.9459 155.899 29.7371C156.254 29.5283 156.564 29.2489 156.83 28.8991L157.708 29.5961C157.525 29.8728 157.293 30.1365 157.011 30.3871C156.729 30.6377 156.381 30.8414 155.969 30.998C155.562 31.1546 155.079 31.233 154.52 31.233ZM161.083 19.0468V31.0763H159.626V19.0468H161.083ZM166.926 31.233C166.336 31.233 165.8 31.1338 165.32 30.9354C164.845 30.7317 164.435 30.4472 164.091 30.0817C163.751 29.7162 163.49 29.2829 163.307 28.7816C163.125 28.2804 163.033 27.7322 163.033 27.137V26.808C163.033 26.1188 163.135 25.5054 163.339 24.9676C163.542 24.4246 163.819 23.9651 164.169 23.5892C164.519 23.2133 164.915 22.9287 165.359 22.7355C165.803 22.5423 166.263 22.4458 166.738 22.4458C167.343 22.4458 167.865 22.5502 168.304 22.759C168.748 22.9679 169.111 23.2603 169.393 23.6362C169.675 24.0069 169.883 24.4455 170.019 24.9519C170.155 25.4531 170.223 26.0014 170.223 26.5966V27.2466H163.895V26.064H168.774V25.9544C168.753 25.5784 168.675 25.213 168.539 24.8579C168.408 24.5029 168.2 24.2105 167.912 23.9808C167.625 23.751 167.234 23.6362 166.738 23.6362C166.409 23.6362 166.106 23.7067 165.829 23.8476C165.552 23.9834 165.315 24.187 165.116 24.4585C164.918 24.73 164.764 25.0616 164.654 25.4531C164.545 25.8447 164.49 26.2964 164.49 26.808V27.137C164.49 27.539 164.545 27.9175 164.654 28.2726C164.769 28.6224 164.934 28.9304 165.148 29.1967C165.367 29.463 165.631 29.6718 165.939 29.8232C166.252 29.9747 166.607 30.0504 167.004 30.0504C167.516 30.0504 167.949 29.9459 168.304 29.7371C168.659 29.5283 168.97 29.2489 169.236 28.8991L170.113 29.5961C169.93 29.8728 169.698 30.1365 169.416 30.3871C169.134 30.6377 168.787 30.8414 168.374 30.998C167.967 31.1546 167.484 31.233 166.926 31.233ZM177.256 29.4317V19.0468H178.712V31.0763H177.381L177.256 29.4317ZM171.554 26.9333V26.7689C171.554 26.1214 171.632 25.5341 171.789 25.0067C171.951 24.4742 172.178 24.0173 172.47 23.6362C172.768 23.255 173.121 22.9626 173.528 22.759C173.94 22.5502 174.4 22.4458 174.906 22.4458C175.439 22.4458 175.903 22.5397 176.3 22.7277C176.702 22.9104 177.042 23.1793 177.318 23.5344C177.6 23.8842 177.822 24.3071 177.984 24.8031C178.146 25.2991 178.258 25.8604 178.321 26.4869V27.2074C178.263 27.8288 178.151 28.3874 177.984 28.8834C177.822 29.3794 177.6 29.8024 177.318 30.1522C177.042 30.502 176.702 30.7709 176.3 30.9588C175.898 31.1416 175.428 31.233 174.89 31.233C174.394 31.233 173.94 31.1259 173.528 30.9119C173.121 30.6978 172.768 30.3976 172.47 30.0112C172.178 29.6248 171.951 29.1706 171.789 28.6485C171.632 28.1211 171.554 27.5494 171.554 26.9333ZM173.011 26.7689V26.9333C173.011 27.3563 173.053 27.7531 173.136 28.1238C173.225 28.4945 173.361 28.8208 173.543 29.1027C173.726 29.3847 173.958 29.6066 174.24 29.7684C174.522 29.9251 174.859 30.0034 175.251 30.0034C175.731 30.0034 176.125 29.9016 176.433 29.6979C176.747 29.4943 176.997 29.2254 177.185 28.8913C177.373 28.5571 177.519 28.1942 177.624 27.8027V25.9152C177.561 25.628 177.47 25.3513 177.35 25.085C177.235 24.8135 177.083 24.5734 176.895 24.3645C176.713 24.1505 176.486 23.9808 176.214 23.8555C175.948 23.7302 175.632 23.6675 175.266 23.6675C174.87 23.6675 174.528 23.751 174.24 23.9181C173.958 24.08 173.726 24.3045 173.543 24.5916C173.361 24.8736 173.225 25.2025 173.136 25.5784C173.053 25.9491 173.011 26.346 173.011 26.7689ZM186.395 24.2314V34.3343H184.939V22.6024H186.27L186.395 24.2314ZM192.105 26.7689V26.9333C192.105 27.5494 192.032 28.1211 191.885 28.6485C191.739 29.1706 191.525 29.6248 191.243 30.0112C190.966 30.3976 190.624 30.6978 190.217 30.9119C189.81 31.1259 189.343 31.233 188.815 31.233C188.278 31.233 187.802 31.1442 187.39 30.9667C186.977 30.7892 186.628 30.5307 186.34 30.1913C186.053 29.852 185.824 29.4447 185.651 28.9696C185.484 28.4945 185.369 27.9593 185.307 27.3641V26.4869C185.369 25.8604 185.487 25.2991 185.659 24.8031C185.831 24.3071 186.059 23.8842 186.34 23.5344C186.628 23.1793 186.975 22.9104 187.382 22.7277C187.789 22.5397 188.259 22.4458 188.792 22.4458C189.324 22.4458 189.797 22.5502 190.209 22.759C190.622 22.9626 190.969 23.255 191.251 23.6362C191.533 24.0173 191.744 24.4742 191.885 25.0067C192.032 25.5341 192.105 26.1214 192.105 26.7689ZM190.648 26.9333V26.7689C190.648 26.346 190.604 25.9491 190.515 25.5784C190.426 25.2025 190.288 24.8736 190.1 24.5916C189.917 24.3045 189.682 24.08 189.395 23.9181C189.108 23.751 188.766 23.6675 188.369 23.6675C188.003 23.6675 187.685 23.7302 187.413 23.8555C187.147 23.9808 186.92 24.1505 186.732 24.3645C186.544 24.5734 186.39 24.8135 186.27 25.085C186.155 25.3513 186.069 25.628 186.012 25.9152V27.9436C186.116 28.3091 186.262 28.6537 186.45 28.9774C186.638 29.2959 186.889 29.5544 187.202 29.7528C187.515 29.9459 187.909 30.0425 188.385 30.0425C188.776 30.0425 189.113 29.9616 189.395 29.7998C189.682 29.6327 189.917 29.4056 190.1 29.1184C190.288 28.8312 190.426 28.5023 190.515 28.1316C190.604 27.7557 190.648 27.3563 190.648 26.9333ZM193.569 26.9333V26.7532C193.569 26.1423 193.658 25.5758 193.835 25.0537C194.013 24.5264 194.269 24.0695 194.603 23.6832C194.937 23.2916 195.342 22.9888 195.817 22.7747C196.292 22.5554 196.825 22.4458 197.415 22.4458C198.01 22.4458 198.545 22.5554 199.02 22.7747C199.5 22.9888 199.908 23.2916 200.242 23.6832C200.581 24.0695 200.84 24.5264 201.017 25.0537C201.195 25.5758 201.283 26.1423 201.283 26.7532V26.9333C201.283 27.5442 201.195 28.1107 201.017 28.6328C200.84 29.1549 200.581 29.6118 200.242 30.0034C199.908 30.3897 199.503 30.6926 199.028 30.9119C198.558 31.1259 198.025 31.233 197.43 31.233C196.835 31.233 196.3 31.1259 195.825 30.9119C195.35 30.6926 194.942 30.3897 194.603 30.0034C194.269 29.6118 194.013 29.1549 193.835 28.6328C193.658 28.1107 193.569 27.5442 193.569 26.9333ZM195.018 26.7532V26.9333C195.018 27.3563 195.068 27.7557 195.167 28.1316C195.266 28.5023 195.415 28.8312 195.613 29.1184C195.817 29.4056 196.07 29.6327 196.373 29.7998C196.676 29.9616 197.028 30.0425 197.43 30.0425C197.827 30.0425 198.174 29.9616 198.472 29.7998C198.775 29.6327 199.025 29.4056 199.224 29.1184C199.422 28.8312 199.571 28.5023 199.67 28.1316C199.775 27.7557 199.827 27.3563 199.827 26.9333V26.7532C199.827 26.3355 199.775 25.9413 199.67 25.5706C199.571 25.1947 199.419 24.8631 199.216 24.576C199.017 24.2836 198.767 24.0539 198.464 23.8868C198.166 23.7197 197.817 23.6362 197.415 23.6362C197.018 23.6362 196.668 23.7197 196.365 23.8868C196.067 24.0539 195.817 24.2836 195.613 24.576C195.415 24.8631 195.266 25.1947 195.167 25.5706C195.068 25.9413 195.018 26.3355 195.018 26.7532ZM205.246 29.5726L207.423 22.6024H208.379L208.191 23.9886L205.975 31.0763H205.043L205.246 29.5726ZM203.782 22.6024L205.638 29.6509L205.771 31.0763H204.792L202.333 22.6024H203.782ZM210.462 29.5961L212.232 22.6024H213.673L211.214 31.0763H210.243L210.462 29.5961ZM208.59 22.6024L210.721 29.4552L210.963 31.0763H210.039L207.76 23.9729L207.572 22.6024H208.59ZM218.678 31.233C218.088 31.233 217.553 31.1338 217.072 30.9354C216.597 30.7317 216.187 30.4472 215.843 30.0817C215.503 29.7162 215.242 29.2829 215.059 28.7816C214.877 28.2804 214.785 27.7322 214.785 27.137V26.808C214.785 26.1188 214.887 25.5054 215.091 24.9676C215.294 24.4246 215.571 23.9651 215.921 23.5892C216.271 23.2133 216.668 22.9287 217.111 22.7355C217.555 22.5423 218.015 22.4458 218.49 22.4458C219.095 22.4458 219.618 22.5502 220.056 22.759C220.5 22.9679 220.863 23.2603 221.145 23.6362C221.427 24.0069 221.635 24.4455 221.771 24.9519C221.907 25.4531 221.975 26.0014 221.975 26.5966V27.2466H215.647V26.064H220.526V25.9544C220.505 25.5784 220.427 25.213 220.291 24.8579C220.161 24.5029 219.952 24.2105 219.665 23.9808C219.377 23.751 218.986 23.6362 218.49 23.6362C218.161 23.6362 217.858 23.7067 217.581 23.8476C217.305 23.9834 217.067 24.187 216.869 24.4585C216.67 24.73 216.516 25.0616 216.406 25.4531C216.297 25.8447 216.242 26.2964 216.242 26.808V27.137C216.242 27.539 216.297 27.9175 216.406 28.2726C216.521 28.6224 216.686 28.9304 216.9 29.1967C217.119 29.463 217.383 29.6718 217.691 29.8232C218.004 29.9747 218.359 30.0504 218.756 30.0504C219.268 30.0504 219.701 29.9459 220.056 29.7371C220.411 29.5283 220.722 29.2489 220.988 28.8991L221.865 29.5961C221.682 29.8728 221.45 30.1365 221.168 30.3871C220.886 30.6377 220.539 30.8414 220.127 30.998C219.719 31.1546 219.236 31.233 218.678 31.233ZM225.115 23.9338V31.0763H223.667V22.6024H225.076L225.115 23.9338ZM227.763 22.5554L227.755 23.9025C227.635 23.8763 227.52 23.8607 227.41 23.8555C227.306 23.845 227.186 23.8398 227.05 23.8398C226.716 23.8398 226.421 23.892 226.165 23.9964C225.909 24.1009 225.692 24.2471 225.515 24.435C225.337 24.623 225.196 24.8475 225.092 25.1085C224.993 25.3644 224.927 25.6463 224.896 25.9544L224.489 26.1893C224.489 25.6776 224.538 25.1973 224.638 24.7483C224.742 24.2993 224.901 23.9025 225.115 23.5579C225.329 23.208 225.601 22.9365 225.93 22.7434C226.264 22.545 226.661 22.4458 227.12 22.4458C227.225 22.4458 227.345 22.4588 227.481 22.4849C227.616 22.5058 227.71 22.5293 227.763 22.5554ZM232.697 26.9333V26.7532C232.697 26.1423 232.785 25.5758 232.963 25.0537C233.14 24.5264 233.396 24.0695 233.73 23.6832C234.064 23.2916 234.469 22.9888 234.944 22.7747C235.419 22.5554 235.952 22.4458 236.542 22.4458C237.137 22.4458 237.672 22.5554 238.147 22.7747C238.628 22.9888 239.035 23.2916 239.369 23.6832C239.709 24.0695 239.967 24.5264 240.144 25.0537C240.322 25.5758 240.411 26.1423 240.411 26.7532V26.9333C240.411 27.5442 240.322 28.1107 240.144 28.6328C239.967 29.1549 239.709 29.6118 239.369 30.0034C239.035 30.3897 238.63 30.6926 238.155 30.9119C237.685 31.1259 237.153 31.233 236.558 31.233C235.962 31.233 235.427 31.1259 234.952 30.9119C234.477 30.6926 234.07 30.3897 233.73 30.0034C233.396 29.6118 233.14 29.1549 232.963 28.6328C232.785 28.1107 232.697 27.5442 232.697 26.9333ZM234.145 26.7532V26.9333C234.145 27.3563 234.195 27.7557 234.294 28.1316C234.393 28.5023 234.542 28.8312 234.741 29.1184C234.944 29.4056 235.197 29.6327 235.5 29.7998C235.803 29.9616 236.156 30.0425 236.558 30.0425C236.954 30.0425 237.302 29.9616 237.599 29.7998C237.902 29.6327 238.153 29.4056 238.351 29.1184C238.549 28.8312 238.698 28.5023 238.797 28.1316C238.902 27.7557 238.954 27.3563 238.954 26.9333V26.7532C238.954 26.3355 238.902 25.9413 238.797 25.5706C238.698 25.1947 238.547 24.8631 238.343 24.576C238.145 24.2836 237.894 24.0539 237.591 23.8868C237.294 23.7197 236.944 23.6362 236.542 23.6362C236.145 23.6362 235.795 23.7197 235.492 23.8868C235.195 24.0539 234.944 24.2836 234.741 24.576C234.542 24.8631 234.393 25.1947 234.294 25.5706C234.195 25.9413 234.145 26.3355 234.145 26.7532ZM244.389 31.0763H242.94V21.7096C242.94 21.0987 243.05 20.5844 243.269 20.1667C243.494 19.7438 243.815 19.4253 244.233 19.2112C244.65 18.992 245.146 18.8823 245.721 18.8823C245.888 18.8823 246.055 18.8928 246.222 18.9136C246.394 18.9345 246.561 18.9659 246.723 19.0076L246.645 20.1902C246.535 20.1641 246.41 20.1458 246.269 20.1354C246.133 20.1249 245.997 20.1197 245.862 20.1197C245.554 20.1197 245.287 20.1824 245.063 20.3077C244.844 20.4278 244.676 20.6053 244.562 20.8402C244.447 21.0752 244.389 21.365 244.389 21.7096V31.0763ZM246.191 22.6024V23.7145H241.601V22.6024H246.191ZM256.779 29.6275V25.2652C256.779 24.931 256.711 24.6412 256.575 24.3959C256.445 24.1452 256.247 23.9521 255.98 23.8163C255.714 23.6806 255.385 23.6127 254.993 23.6127C254.628 23.6127 254.307 23.6753 254.03 23.8006C253.759 23.926 253.545 24.0904 253.388 24.294C253.237 24.4977 253.161 24.717 253.161 24.9519H251.712C251.712 24.6491 251.79 24.3489 251.947 24.0513C252.104 23.7537 252.328 23.4848 252.62 23.2446C252.918 22.9992 253.273 22.806 253.686 22.665C254.103 22.5188 254.568 22.4458 255.08 22.4458C255.696 22.4458 256.239 22.5502 256.709 22.759C257.184 22.9679 257.554 23.2837 257.821 23.7067C258.092 24.1244 258.228 24.6491 258.228 25.2808V29.228C258.228 29.51 258.251 29.8102 258.298 30.1287C258.351 30.4472 258.426 30.7213 258.526 30.951V31.0763H257.014C256.941 30.9092 256.884 30.6873 256.842 30.4106C256.8 30.1287 256.779 29.8676 256.779 29.6275ZM257.03 25.9387L257.045 26.9568H255.581C255.168 26.9568 254.8 26.9908 254.477 27.0586C254.153 27.1213 253.881 27.2179 253.662 27.3484C253.443 27.4789 253.276 27.6434 253.161 27.8418C253.046 28.035 252.989 28.2621 252.989 28.5232C252.989 28.7895 253.049 29.0322 253.169 29.2515C253.289 29.4708 253.469 29.6457 253.709 29.7763C253.954 29.9016 254.255 29.9642 254.61 29.9642C255.054 29.9642 255.445 29.8702 255.784 29.6823C256.124 29.4943 256.393 29.2646 256.591 28.9931C256.795 28.7216 256.904 28.4579 256.92 28.2021L257.539 28.8991C257.502 29.1184 257.403 29.3612 257.241 29.6275C257.079 29.8937 256.863 30.1496 256.591 30.395C256.325 30.6351 256.006 30.8362 255.636 30.998C255.27 31.1546 254.858 31.233 254.398 31.233C253.824 31.233 253.32 31.1207 252.887 30.8962C252.459 30.6717 252.124 30.3715 251.884 29.9955C251.649 29.6144 251.532 29.1889 251.532 28.719C251.532 28.2647 251.621 27.8653 251.798 27.5207C251.976 27.1709 252.231 26.8811 252.566 26.6514C252.9 26.4164 253.302 26.2389 253.772 26.1188C254.242 25.9987 254.766 25.9387 255.346 25.9387H257.03ZM262.081 22.6024V31.0763H260.624V22.6024H262.081ZM260.515 20.3547C260.515 20.1197 260.585 19.9213 260.726 19.7595C260.872 19.5976 261.087 19.5167 261.368 19.5167C261.645 19.5167 261.857 19.5976 262.003 19.7595C262.154 19.9213 262.23 20.1197 262.23 20.3547C262.23 20.5792 262.154 20.7724 262.003 20.9342C261.857 21.0909 261.645 21.1692 261.368 21.1692C261.087 21.1692 260.872 21.0909 260.726 20.9342C260.585 20.7724 260.515 20.5792 260.515 20.3547ZM264.431 30.3088C264.431 30.0634 264.506 29.8572 264.658 29.6901C264.814 29.5178 265.039 29.4317 265.331 29.4317C265.624 29.4317 265.846 29.5178 265.997 29.6901C266.154 29.8572 266.232 30.0634 266.232 30.3088C266.232 30.549 266.154 30.7526 265.997 30.9197C265.846 31.0868 265.624 31.1703 265.331 31.1703C265.039 31.1703 264.814 31.0868 264.658 30.9197C264.506 30.7526 264.431 30.549 264.431 30.3088Z" fill="white" fill-opacity="0.7"/>
</svg>
